<mxfile host="app.diagrams.net" modified="2024-04-20T05:38:00.373Z" agent="Mozilla/5.0 (Windows NT 10.0; Win64; x64) AppleWebKit/537.36 (KHTML, like Gecko) Chrome/123.0.0.0 Safari/537.36" etag="CHvO0LnihnPQ9VFXjViP" version="24.2.7" type="github">
  <diagram id="prtHgNgQTEPvFCAcTncT" name="Page-1">
    <mxGraphModel dx="1050" dy="522" grid="1" gridSize="10" guides="1" tooltips="1" connect="1" arrows="1" fold="1" page="1" pageScale="1" pageWidth="827" pageHeight="1169" math="0" shadow="0">
      <root>
        <mxCell id="0" />
        <mxCell id="1" parent="0" />
        <mxCell id="n9u7nxXoXUkMen903BA6-50" style="edgeStyle=orthogonalEdgeStyle;rounded=0;orthogonalLoop=1;jettySize=auto;html=1;exitX=0.5;exitY=1;exitDx=0;exitDy=0;strokeColor=default;align=center;verticalAlign=middle;fontFamily=Helvetica;fontSize=17;fontColor=default;labelBackgroundColor=default;endArrow=none;endFill=0;" edge="1" parent="1" source="n9u7nxXoXUkMen903BA6-1" target="n9u7nxXoXUkMen903BA6-3">
          <mxGeometry relative="1" as="geometry" />
        </mxCell>
        <mxCell id="n9u7nxXoXUkMen903BA6-1" value="点餐系统" style="rounded=0;whiteSpace=wrap;html=1;fontSize=17;movable=1;resizable=1;rotatable=1;deletable=1;editable=1;locked=0;connectable=1;" vertex="1" parent="1">
          <mxGeometry x="320" y="60" width="160" height="40" as="geometry" />
        </mxCell>
        <mxCell id="n9u7nxXoXUkMen903BA6-25" value="" style="group" vertex="1" connectable="0" parent="1">
          <mxGeometry x="110" y="160" width="669" height="240" as="geometry" />
        </mxCell>
        <mxCell id="n9u7nxXoXUkMen903BA6-49" value="" style="group" vertex="1" connectable="0" parent="n9u7nxXoXUkMen903BA6-25">
          <mxGeometry y="-10" width="589" height="240" as="geometry" />
        </mxCell>
        <mxCell id="n9u7nxXoXUkMen903BA6-38" style="edgeStyle=orthogonalEdgeStyle;rounded=0;orthogonalLoop=1;jettySize=auto;html=1;exitX=0.5;exitY=1;exitDx=0;exitDy=0;entryX=0.5;entryY=0;entryDx=0;entryDy=0;strokeColor=default;align=center;verticalAlign=middle;fontFamily=Helvetica;fontSize=17;fontColor=default;labelBackgroundColor=default;endArrow=none;endFill=0;" edge="1" parent="n9u7nxXoXUkMen903BA6-49" source="n9u7nxXoXUkMen903BA6-2" target="n9u7nxXoXUkMen903BA6-19">
          <mxGeometry relative="1" as="geometry" />
        </mxCell>
        <mxCell id="n9u7nxXoXUkMen903BA6-42" style="edgeStyle=orthogonalEdgeStyle;rounded=0;orthogonalLoop=1;jettySize=auto;html=1;exitX=0.5;exitY=1;exitDx=0;exitDy=0;entryX=0.5;entryY=0;entryDx=0;entryDy=0;strokeColor=default;align=center;verticalAlign=middle;fontFamily=Helvetica;fontSize=17;fontColor=default;labelBackgroundColor=default;endArrow=none;endFill=0;" edge="1" parent="n9u7nxXoXUkMen903BA6-49" source="n9u7nxXoXUkMen903BA6-2" target="n9u7nxXoXUkMen903BA6-20">
          <mxGeometry relative="1" as="geometry" />
        </mxCell>
        <mxCell id="n9u7nxXoXUkMen903BA6-44" style="edgeStyle=orthogonalEdgeStyle;rounded=0;orthogonalLoop=1;jettySize=auto;html=1;exitX=0.5;exitY=1;exitDx=0;exitDy=0;entryX=0.5;entryY=0;entryDx=0;entryDy=0;strokeColor=default;align=center;verticalAlign=middle;fontFamily=Helvetica;fontSize=17;fontColor=default;labelBackgroundColor=default;endArrow=none;endFill=0;" edge="1" parent="n9u7nxXoXUkMen903BA6-49" source="n9u7nxXoXUkMen903BA6-2" target="n9u7nxXoXUkMen903BA6-21">
          <mxGeometry relative="1" as="geometry" />
        </mxCell>
        <mxCell id="n9u7nxXoXUkMen903BA6-2" value="移动前端" style="rounded=0;whiteSpace=wrap;html=1;fontSize=17;" vertex="1" parent="n9u7nxXoXUkMen903BA6-49">
          <mxGeometry x="339.5" width="160" height="40" as="geometry" />
        </mxCell>
        <mxCell id="n9u7nxXoXUkMen903BA6-28" style="edgeStyle=orthogonalEdgeStyle;rounded=0;orthogonalLoop=1;jettySize=auto;html=1;exitX=0.5;exitY=1;exitDx=0;exitDy=0;entryX=0.5;entryY=0;entryDx=0;entryDy=0;strokeColor=default;align=center;verticalAlign=middle;fontFamily=Helvetica;fontSize=17;fontColor=default;labelBackgroundColor=default;endArrow=none;endFill=0;" edge="1" parent="n9u7nxXoXUkMen903BA6-49" source="n9u7nxXoXUkMen903BA6-3" target="n9u7nxXoXUkMen903BA6-11">
          <mxGeometry relative="1" as="geometry" />
        </mxCell>
        <mxCell id="n9u7nxXoXUkMen903BA6-35" style="edgeStyle=orthogonalEdgeStyle;rounded=0;orthogonalLoop=1;jettySize=auto;html=1;exitX=0.5;exitY=1;exitDx=0;exitDy=0;entryX=0.5;entryY=0;entryDx=0;entryDy=0;strokeColor=default;align=center;verticalAlign=middle;fontFamily=Helvetica;fontSize=17;fontColor=default;labelBackgroundColor=default;endArrow=none;endFill=0;" edge="1" parent="n9u7nxXoXUkMen903BA6-49" source="n9u7nxXoXUkMen903BA6-3" target="n9u7nxXoXUkMen903BA6-12">
          <mxGeometry relative="1" as="geometry" />
        </mxCell>
        <mxCell id="n9u7nxXoXUkMen903BA6-36" style="edgeStyle=orthogonalEdgeStyle;rounded=0;orthogonalLoop=1;jettySize=auto;html=1;exitX=0.5;exitY=1;exitDx=0;exitDy=0;entryX=0.5;entryY=0;entryDx=0;entryDy=0;strokeColor=default;align=center;verticalAlign=middle;fontFamily=Helvetica;fontSize=17;fontColor=default;labelBackgroundColor=default;endArrow=none;endFill=0;" edge="1" parent="n9u7nxXoXUkMen903BA6-49" source="n9u7nxXoXUkMen903BA6-3" target="n9u7nxXoXUkMen903BA6-14">
          <mxGeometry relative="1" as="geometry" />
        </mxCell>
        <mxCell id="n9u7nxXoXUkMen903BA6-3" value="系统管理后端" style="rounded=0;whiteSpace=wrap;html=1;fontSize=17;" vertex="1" parent="n9u7nxXoXUkMen903BA6-49">
          <mxGeometry x="39.5" width="160" height="40" as="geometry" />
        </mxCell>
        <mxCell id="n9u7nxXoXUkMen903BA6-23" value="" style="group" vertex="1" connectable="0" parent="n9u7nxXoXUkMen903BA6-49">
          <mxGeometry y="80" width="239" height="160" as="geometry" />
        </mxCell>
        <mxCell id="n9u7nxXoXUkMen903BA6-10" value="&lt;div style=&quot;text-align: justify; font-size: 17px;&quot;&gt;分类管理&lt;/div&gt;" style="rounded=0;whiteSpace=wrap;html=1;fontFamily=Helvetica;fontSize=17;fontColor=default;labelBackgroundColor=default;textDirection=vertical-lr;spacing=1;" vertex="1" parent="n9u7nxXoXUkMen903BA6-23">
          <mxGeometry x="52" width="39" height="160" as="geometry" />
        </mxCell>
        <mxCell id="n9u7nxXoXUkMen903BA6-11" value="&lt;div style=&quot;text-align: justify; font-size: 17px;&quot;&gt;员工管理&lt;/div&gt;" style="rounded=0;whiteSpace=wrap;html=1;fontFamily=Helvetica;fontSize=17;fontColor=default;labelBackgroundColor=default;textDirection=vertical-lr;spacing=1;" vertex="1" parent="n9u7nxXoXUkMen903BA6-23">
          <mxGeometry width="39" height="160" as="geometry" />
        </mxCell>
        <mxCell id="n9u7nxXoXUkMen903BA6-12" value="&lt;div style=&quot;text-align: justify; font-size: 17px;&quot;&gt;套餐管理&lt;/div&gt;" style="rounded=0;whiteSpace=wrap;html=1;fontFamily=Helvetica;fontSize=17;fontColor=default;labelBackgroundColor=default;textDirection=vertical-lr;spacing=1;" vertex="1" parent="n9u7nxXoXUkMen903BA6-23">
          <mxGeometry x="150" width="39" height="160" as="geometry" />
        </mxCell>
        <mxCell id="n9u7nxXoXUkMen903BA6-13" value="&lt;div style=&quot;text-align: justify; font-size: 17px;&quot;&gt;菜品管理&lt;/div&gt;" style="rounded=0;whiteSpace=wrap;html=1;fontFamily=Helvetica;fontSize=17;fontColor=default;labelBackgroundColor=default;textDirection=vertical-lr;spacing=1;" vertex="1" parent="n9u7nxXoXUkMen903BA6-23">
          <mxGeometry x="100" width="39" height="160" as="geometry" />
        </mxCell>
        <mxCell id="n9u7nxXoXUkMen903BA6-14" value="&lt;div style=&quot;text-align: justify; font-size: 17px;&quot;&gt;订单管理&lt;/div&gt;" style="rounded=0;whiteSpace=wrap;html=1;fontFamily=Helvetica;fontSize=17;fontColor=default;labelBackgroundColor=default;textDirection=vertical-lr;spacing=1;" vertex="1" parent="n9u7nxXoXUkMen903BA6-23">
          <mxGeometry x="200" width="39" height="160" as="geometry" />
        </mxCell>
        <mxCell id="n9u7nxXoXUkMen903BA6-24" value="" style="group" vertex="1" connectable="0" parent="n9u7nxXoXUkMen903BA6-49">
          <mxGeometry x="250" y="80" width="339" height="160" as="geometry" />
        </mxCell>
        <mxCell id="n9u7nxXoXUkMen903BA6-15" value="&lt;div style=&quot;text-align: justify; font-size: 17px;&quot;&gt;下单支付&lt;/div&gt;" style="rounded=0;whiteSpace=wrap;html=1;fontFamily=Helvetica;fontSize=17;fontColor=default;labelBackgroundColor=default;textDirection=vertical-lr;spacing=1;" vertex="1" parent="n9u7nxXoXUkMen903BA6-24">
          <mxGeometry x="250" width="39" height="160" as="geometry" />
        </mxCell>
        <mxCell id="n9u7nxXoXUkMen903BA6-16" value="&lt;div style=&quot;text-align: justify; font-size: 17px;&quot;&gt;购物车管理订单&lt;/div&gt;" style="rounded=0;whiteSpace=wrap;html=1;fontFamily=Helvetica;fontSize=17;fontColor=default;labelBackgroundColor=default;textDirection=vertical-lr;spacing=1;" vertex="1" parent="n9u7nxXoXUkMen903BA6-24">
          <mxGeometry x="150" width="39" height="160" as="geometry" />
        </mxCell>
        <mxCell id="n9u7nxXoXUkMen903BA6-17" value="&lt;div style=&quot;text-align: justify; font-size: 17px;&quot;&gt;菜品规格选择&lt;/div&gt;" style="rounded=0;whiteSpace=wrap;html=1;fontFamily=Helvetica;fontSize=17;fontColor=default;labelBackgroundColor=default;textDirection=vertical-lr;spacing=1;" vertex="1" parent="n9u7nxXoXUkMen903BA6-24">
          <mxGeometry x="100" width="40" height="160" as="geometry" />
        </mxCell>
        <mxCell id="n9u7nxXoXUkMen903BA6-18" value="&lt;div style=&quot;text-align: justify; font-size: 17px;&quot;&gt;菜品浏览&lt;/div&gt;" style="rounded=0;whiteSpace=wrap;html=1;fontFamily=Helvetica;fontSize=17;fontColor=default;labelBackgroundColor=default;textDirection=vertical-lr;spacing=1;" vertex="1" parent="n9u7nxXoXUkMen903BA6-24">
          <mxGeometry x="48" width="39" height="160" as="geometry" />
        </mxCell>
        <mxCell id="n9u7nxXoXUkMen903BA6-19" value="&lt;div style=&quot;text-align: justify; font-size: 17px;&quot;&gt;手机号登录&lt;/div&gt;" style="rounded=0;whiteSpace=wrap;html=1;fontFamily=Helvetica;fontSize=17;fontColor=default;labelBackgroundColor=default;textDirection=vertical-lr;spacing=1;" vertex="1" parent="n9u7nxXoXUkMen903BA6-24">
          <mxGeometry width="39" height="160" as="geometry" />
        </mxCell>
        <mxCell id="n9u7nxXoXUkMen903BA6-20" value="&lt;div style=&quot;text-align: justify; font-size: 17px;&quot;&gt;地址管理&lt;/div&gt;" style="rounded=0;whiteSpace=wrap;html=1;fontFamily=Helvetica;fontSize=17;fontColor=default;labelBackgroundColor=default;textDirection=vertical-lr;spacing=1;" vertex="1" parent="n9u7nxXoXUkMen903BA6-24">
          <mxGeometry x="200" width="39" height="160" as="geometry" />
        </mxCell>
        <mxCell id="n9u7nxXoXUkMen903BA6-21" value="&lt;div style=&quot;text-align: justify; font-size: 17px;&quot;&gt;历史订单&lt;/div&gt;" style="rounded=0;whiteSpace=wrap;html=1;fontFamily=Helvetica;fontSize=17;fontColor=default;labelBackgroundColor=default;textDirection=vertical-lr;spacing=1;" vertex="1" parent="n9u7nxXoXUkMen903BA6-24">
          <mxGeometry x="300" width="39" height="160" as="geometry" />
        </mxCell>
        <mxCell id="n9u7nxXoXUkMen903BA6-34" style="edgeStyle=orthogonalEdgeStyle;rounded=0;orthogonalLoop=1;jettySize=auto;html=1;exitX=0.5;exitY=0;exitDx=0;exitDy=0;entryX=0.5;entryY=1;entryDx=0;entryDy=0;strokeColor=default;align=center;verticalAlign=middle;fontFamily=Helvetica;fontSize=17;fontColor=default;labelBackgroundColor=default;endArrow=none;endFill=0;" edge="1" parent="n9u7nxXoXUkMen903BA6-49" source="n9u7nxXoXUkMen903BA6-13" target="n9u7nxXoXUkMen903BA6-3">
          <mxGeometry relative="1" as="geometry" />
        </mxCell>
        <mxCell id="n9u7nxXoXUkMen903BA6-37" style="edgeStyle=orthogonalEdgeStyle;rounded=0;orthogonalLoop=1;jettySize=auto;html=1;exitX=0.5;exitY=0;exitDx=0;exitDy=0;entryX=0.5;entryY=1;entryDx=0;entryDy=0;strokeColor=default;align=center;verticalAlign=middle;fontFamily=Helvetica;fontSize=17;fontColor=default;labelBackgroundColor=default;endArrow=none;endFill=0;" edge="1" parent="n9u7nxXoXUkMen903BA6-49" source="n9u7nxXoXUkMen903BA6-10" target="n9u7nxXoXUkMen903BA6-3">
          <mxGeometry relative="1" as="geometry" />
        </mxCell>
        <mxCell id="n9u7nxXoXUkMen903BA6-45" style="edgeStyle=orthogonalEdgeStyle;rounded=0;orthogonalLoop=1;jettySize=auto;html=1;exitX=0.5;exitY=0;exitDx=0;exitDy=0;entryX=0.5;entryY=1;entryDx=0;entryDy=0;strokeColor=default;align=center;verticalAlign=middle;fontFamily=Helvetica;fontSize=17;fontColor=default;labelBackgroundColor=default;endArrow=none;endFill=0;" edge="1" parent="n9u7nxXoXUkMen903BA6-49" source="n9u7nxXoXUkMen903BA6-17" target="n9u7nxXoXUkMen903BA6-2">
          <mxGeometry relative="1" as="geometry" />
        </mxCell>
        <mxCell id="n9u7nxXoXUkMen903BA6-46" style="edgeStyle=orthogonalEdgeStyle;rounded=0;orthogonalLoop=1;jettySize=auto;html=1;exitX=0.5;exitY=0;exitDx=0;exitDy=0;entryX=0.5;entryY=1;entryDx=0;entryDy=0;strokeColor=default;align=center;verticalAlign=middle;fontFamily=Helvetica;fontSize=17;fontColor=default;labelBackgroundColor=default;endArrow=none;endFill=0;" edge="1" parent="n9u7nxXoXUkMen903BA6-49" source="n9u7nxXoXUkMen903BA6-18" target="n9u7nxXoXUkMen903BA6-2">
          <mxGeometry relative="1" as="geometry" />
        </mxCell>
        <mxCell id="n9u7nxXoXUkMen903BA6-48" style="edgeStyle=orthogonalEdgeStyle;rounded=0;orthogonalLoop=1;jettySize=auto;html=1;exitX=0.5;exitY=0;exitDx=0;exitDy=0;entryX=0.5;entryY=1;entryDx=0;entryDy=0;strokeColor=default;align=center;verticalAlign=middle;fontFamily=Helvetica;fontSize=17;fontColor=default;labelBackgroundColor=default;endArrow=none;endFill=0;" edge="1" parent="n9u7nxXoXUkMen903BA6-49" source="n9u7nxXoXUkMen903BA6-16" target="n9u7nxXoXUkMen903BA6-2">
          <mxGeometry relative="1" as="geometry" />
        </mxCell>
        <mxCell id="n9u7nxXoXUkMen903BA6-52" style="edgeStyle=orthogonalEdgeStyle;rounded=0;orthogonalLoop=1;jettySize=auto;html=1;exitX=0.5;exitY=0;exitDx=0;exitDy=0;entryX=0.5;entryY=1;entryDx=0;entryDy=0;strokeColor=default;align=center;verticalAlign=middle;fontFamily=Helvetica;fontSize=17;fontColor=default;labelBackgroundColor=default;endArrow=none;endFill=0;" edge="1" parent="1" source="n9u7nxXoXUkMen903BA6-2" target="n9u7nxXoXUkMen903BA6-1">
          <mxGeometry relative="1" as="geometry" />
        </mxCell>
      </root>
    </mxGraphModel>
  </diagram>
</mxfile>
